# xmcd CD database file
#
# Track frame offsets:
#	182
#	14505
#	27350
#	40562
#	50132
#	63297
#	72630
#	82672
#	89867
#	101145
#	110455
#	119290
#	132975
#	141697
#
# Disc length: 2120 seconds
#
# Revision: 1
# Processed by: cddbd v1.5.2PL0 Copyright (c) Steve Scherf et al.
# Submitted via: CDex 1.70beta2
#
DISCID=cf08460e
DTITLE=Tennessee Ernie Ford - All Time Greatest Hymns
DYEAR=1990
DGENRE=Gospel
TTITLE0=Softly and Tenderly
TTITLE1=In the Garden
TTITLE2=The Old Rugged Cross
TTITLE3=When the Roll Is Called Up Yonder
TTITLE4=Sweet Hour Of Prayer
TTITLE5=Shall We Gather at the River
TTITLE6=The Church In The Wildwood
TTITLE7=How Great Thou Art
TTITLE8=Whispering Hope
TTITLE9=Bringing In The Sheaves
TTITLE10=All Hail The Power
TTITLE11=Faith Of Our Fathers
TTITLE12=There Is Power In The Blood
TTITLE13=What a Friend We Have in Jesus
EXTD=Curb Records YEAR: 1990
EXTT0=
EXTT1=
EXTT2=
EXTT3=
EXTT4=
EXTT5=
EXTT6=
EXTT7=
EXTT8=
EXTT9=
EXTT10=
EXTT11=
EXTT12=
EXTT13=
PLAYORDER=
